PathFileType	4	(X/Y/Z)	C:\Users\Basilio\Documents\Thesis Gigler\squatting_fais\c3dfiles\044\SLS_back_pre5\markers_experimental.trc
DataRate	CameraRate	NumFrames	NumMarkers	Units	OrigDataRate	OrigDataStartFrame	OrigNumFrames
200.000000	200.000000	4	63	mm	200.000000	1218	1393
Frame#	Time	FHD			LBHD			RBHD			C7			T10			LSHO			LUUPA			LMUPA			LDUPA			LLEP			LMEP			LUL			LRFIN			RSHO			RUPA1			RMUPA			RDUPA			RLEP			RMEP			RUL			RUFIN			LASI			RASI			USACR			LSACR			RSACR			LTHI1			LTHI2			LTHI3			LTHI4			LLFC			LMFC			LTIB1			LTIB2			LTIB3			LTIB4			LLMAL			LMMAL			LHEE			LMT1			LMT2			LMT5			RTHI			RTHI2			RTHI3			RTHI4			RLFC			RMFC			RTIB1			RTIB2			RTIB3			RTIB4			RLMAL			RHEE			RMT1			RMT2			RMT5			RMMAL			CLAV			LRAD			RRAD			*61			*62			
		X1	Y1	Z1	X2	Y2	Z2	X3	Y3	Z3	X4	Y4	Z4	X5	Y5	Z5	X6	Y6	Z6	X7	Y7	Z7	X8	Y8	Z8	X9	Y9	Z9	X10	Y10	Z10	X11	Y11	Z11	X12	Y12	Z12	X13	Y13	Z13	X14	Y14	Z14	X15	Y15	Z15	X16	Y16	Z16	X17	Y17	Z17	X18	Y18	Z18	X19	Y19	Z19	X20	Y20	Z20	X21	Y21	Z21	X22	Y22	Z22	X23	Y23	Z23	X24	Y24	Z24	X25	Y25	Z25	X26	Y26	Z26	X27	Y27	Z27	X28	Y28	Z28	X29	Y29	Z29	X30	Y30	Z30	X31	Y31	Z31	X32	Y32	Z32	X33	Y33	Z33	X34	Y34	Z34	X35	Y35	Z35	X36	Y36	Z36	X37	Y37	Z37	X38	Y38	Z38	X39	Y39	Z39	X40	Y40	Z40	X41	Y41	Z41	X42	Y42	Z42	X43	Y43	Z43	X44	Y44	Z44	X45	Y45	Z45	X46	Y46	Z46	X47	Y47	Z47	X48	Y48	Z48	X49	Y49	Z49	X50	Y50	Z50	X51	Y51	Z51	X52	Y52	Z52	X53	Y53	Z53	X54	Y54	Z54	X55	Y55	Z55	X56	Y56	Z56	X57	Y57	Z57	X58	Y58	Z58	X59	Y59	Z59	X60	Y60	Z60	X61	Y61	Z61	X62	Y62	Z62	X63	Y63	Z63	

1219	6.09	-242.4251861572266	1805.72119140625	-905.3922119140627	-374.8000488281251	1746.115966796875	-967.0494384765627	-397.561492919922	1726.48486328125	-802.3222656250002	-401.9385070800782	1556.074096679688	-886.147399902344	-376.3086853027344	1253.160400390625	-867.3843994140627	-320.2296752929688	1581.786743164063	-1032.848022460938	-165.7427825927735	1578.705810546875	-1147.280883789063	-137.4015045166016	1596.0146484375	-1109.544311523438	-99.18800354003909	1585.54541015625	-1155.448364257813	-40.36857223510743	1594.70751953125	-1150.206298828125	-35.01558685302735	1518.371826171875	-1137.44189453125	205.9127655029297	1649.9365234375	-1017.663391113281	208.6444702148438	1673.72705078125	-915.2886352539065	-310.8497314453126	1576.45263671875	-732.8549194335939	-164.4294586181641	1586.218505859375	-621.9724121093751	-134.5625152587891	1602.970825195313	-659.7111816406251	-96.52361297607425	1599.965209960938	-612.8206176757814	-35.78777694702149	1614.186401367188	-619.4264526367189	-21.79870223999024	1532.832641601563	-620.4208984375001	205.1214141845704	1661.997436523438	-761.2494506835939	201.7468719482422	1635.995483398438	-874.774108886719	-203.5187072753907	1066.252197265625	-975.3806152343752	-181.9163818359375	1051.197875976563	-761.0108032226564	-362.3107604980469	1111.543212890625	-850.1853027343752	-368.6777343750001	1077.879638671875	-876.9060668945315	-361.4593811035157	1080.747802734375	-819.5838623046877	-291.5227355957032	830.1420898437502	-1054.409545898438	-254.5321350097657	754.4400024414064	-1059.29443359375	-206.6213989257813	758.7855834960939	-1055.468383789063	-278.1095275878907	699.8404541015626	-1048.826416015625	-253.7845153808594	541.9227294921876	-1047.708984375	-241.8262176513672	528.4262084960939	-926.219177246094	-245.7400054931641	360.9199218750001	-985.0125732421877	-275.9520263671876	321.2941589355469	-1058.342163085938	-246.3013763427735	315.3526916503907	-1022.313049316406	-269.8003540039063	237.7629394531251	-996.979919433594	-332.4245605468751	129.9832153320313	-1050.164794921875	-313.7276916503907	132.2643280029297	-964.920593261719	-398.2543334960939	105.579330444336	-1005.434875488281	-190.6760864257813	59.18104934692384	-980.5696411132815	-190.2661437988282	60.43515396118165	-1027.786376953125	-227.0027923583985	48.24896240234376	-1074.870849609375	-273.4318542480469	780.4609985351565	-676.1478271484376	-230.7407226562501	727.8605346679689	-672.0930786132814	-198.3937377929688	731.3460083007814	-676.8799438476564	-251.6244812011719	646.9492797851564	-684.8062744140626	-250.8685913085938	533.7005615234376	-688.0455322265626	-259.5630493164063	523.1176147460939	-811.240417480469	-216.9110870361329	401.4859008789064	-711.4566650390626	-290.1793823242188	338.4254150390626	-658.7598266601564	-250.0577087402344	327.0183715820313	-677.8574218750001	-245.8172607421876	275.0394287109376	-702.4187011718751	-322.4293212890626	126.3376922607422	-678.6840820312501	-382.4417419433594	98.51698303222659	-723.4692993164064	-176.2454376220703	63.22752761840822	-755.1660156250001	-171.0771942138672	58.53013229370119	-719.7990112304689	-207.233871459961	38.40743255615235	-665.9757690429689	-305.0605163574219	135.1772613525391	-761.8884887695314	nan	nan	nan	194.2812194824219	1602.878051757813	-966.6134033203127	nan	nan	nan	nan	nan	nan	nan	nan	nan	
1220	6.095	-242.8385009765626	1805.80810546875	-904.7320556640627	-375.8015747070313	1745.573852539063	-966.270690917969	-397.7650756835939	1726.203857421875	-801.4680175781252	-402.109344482422	1556.074829101563	-885.7094726562502	-376.4082946777344	1253.113403320313	-866.920837402344	-320.2894592285157	1581.79833984375	-1032.28369140625	-166.0835876464844	1578.769775390625	-1146.81982421875	-137.5611877441407	1595.974853515625	-1109.088256835938	-99.37927246093753	1585.631225585938	-1154.860107421875	-40.61638259887696	1594.81494140625	-1149.57373046875	-35.53806686401368	1518.212890625	-1136.87353515625	205.733139038086	1650.071166992188	-1017.254760742188	208.4780578613282	1673.173461914063	-914.566345214844	-311.0562133789063	1576.49951171875	-732.2404174804689	-164.4087524414063	1586.168579101563	-621.5198974609376	-134.6228179931641	1602.946533203125	-659.2946166992189	-96.57767486572268	1600.017456054688	-612.4471435546876	-36.12929153442384	1614.203369140625	-618.8835449218751	-21.95443344116211	1532.714965820313	-619.8066406250001	205.0081634521485	1661.980346679688	-760.7336425781251	201.5993652343751	1636.048217773438	-874.2054443359377	-201.1747131347657	1067.011840820313	-976.624206542969	-182.010482788086	1051.209228515625	-760.9042968750001	-362.4290771484376	1111.517578125	-849.863220214844	-368.7937316894532	1077.974243164063	-876.5972900390627	-361.4848937988282	1080.738647460938	-819.2380981445315	-291.8289489746094	830.2078857421877	-1054.181518554688	-254.8354797363282	754.5756225585939	-1058.92724609375	-206.7321777343751	758.8645629882814	-1055.324096679688	-278.2769775390626	699.8496704101564	-1048.708374023438	-253.9060058593751	541.9457397460939	-1047.615844726563	-241.8733367919922	528.5347290039064	-926.1751098632815	-245.7747497558594	361.0501708984376	-984.9590454101565	-275.9985961914063	321.3457336425782	-1058.303100585938	-246.2888183593751	315.3320617675782	-1022.292419433594	-269.8006591796876	237.7543640136719	-996.9426269531252	-332.3890991210938	129.9977722167969	-1050.170654296875	-313.7367248535157	132.2647247314453	-964.878601074219	-398.2215270996095	105.536117553711	-1005.452209472656	-190.6247100830078	59.19797134399415	-980.5794677734377	-190.2894439697266	60.50584793090822	-1027.796630859375	-226.9597930908204	48.22377395629884	-1074.941162109375	-273.5992126464844	780.384948730469	-675.9731445312501	-230.8340606689454	727.8244018554689	-671.9310913085939	-198.4093933105469	731.3897705078126	-676.7590942382814	-251.812728881836	647.1453247070314	-684.8621215820314	-250.9872283935547	533.6940917968751	-687.9042358398439	-259.5961914062501	523.1519775390626	-811.1455688476565	-217.0731506347657	401.5305786132814	-711.3665161132814	-290.2263488769532	338.3784179687501	-658.8103637695314	-250.0839233398438	327.0124816894532	-677.7557983398439	-245.8538360595704	275.0478515625001	-702.3571166992189	-322.4521789550782	126.2866439819336	-678.6577148437501	-382.4281616210938	98.49567413330081	-723.4337158203126	-176.2822570800782	63.2025604248047	-755.1757812500001	-172.113021850586	57.85229873657228	-719.9877319335939	-207.2533264160157	38.42539596557618	-665.9626464843751	-304.9952087402344	135.1788177490235	-761.8767700195314	nan	nan	nan	194.0140991210938	1602.821533203125	-966.0884399414065	nan	nan	nan	nan	nan	nan	nan	nan	nan	
1221	6.100000000000001	-243.3671264648438	1805.784057617188	-904.2002563476565	-376.2841796875001	1745.41748046875	-965.510681152344	-397.9583129882814	1726.282836914063	-800.9226684570315	-402.3325195312501	1556.026000976563	-885.171569824219	-376.4544982910157	1253.139892578125	-866.5819091796877	-320.1431579589844	1581.985473632813	-1031.654541015625	-166.0079345703125	1578.8046875	-1146.275756835938	-137.7390747070313	1596.155395507813	-1108.594116210938	-99.60346221923831	1585.59716796875	-1154.3154296875	-40.87715911865235	1594.919677734375	-1148.974365234375	-35.67696380615235	1518.339111328125	-1136.326538085938	205.5571899414063	1649.656860351563	-1016.322204589844	208.0760498046876	1673.270751953125	-914.301208496094	-311.0876770019532	1576.433715820313	-731.7177124023439	-164.481674194336	1586.029663085938	-621.0465087890626	-134.7159729003907	1602.805419921875	-658.6397094726564	-96.64373016357425	1599.996337890625	-612.1275024414064	-36.21335601806641	1614.190063476563	-618.4295654296876	-21.94962120056153	1532.733520507813	-620.0810546875001	204.9681701660157	1661.857299804688	-760.2263183593751	201.9026031494141	1637.402587890625	-873.679138183594	-201.3073120117188	1067.0458984375	-976.4606933593752	-182.0854034423828	1051.206787109375	-760.7765502929689	-362.4571838378907	1111.532958984375	-849.6239013671877	-368.8828125000001	1077.877075195313	-876.3666992187502	-361.4983215332032	1080.69873046875	-818.9772949218752	-292.0379028320313	830.3215942382815	-1054.015625	-255.0982971191407	754.5773925781251	-1058.783813476563	-207.0127105712891	758.9613647460939	-1055.222900390625	-278.4891967773438	699.8677978515626	-1048.591186523438	-254.0723266601563	542.0152587890626	-1047.506958007813	-241.9112701416016	528.5903930664064	-926.1497802734377	-246.0034942626954	361.4402770996094	-984.9022216796877	-276.5852966308594	320.9485473632813	-1058.271240234375	-246.3407287597657	315.3953552246094	-1022.260070800781	-269.8296203613282	237.7925567626954	-996.945251464844	-332.2447509765626	130.0063018798828	-1050.0751953125	-313.7243347167969	132.2369842529297	-964.8694458007815	-398.2628784179689	105.6491775512696	-1005.416198730469	-190.6623840332032	59.20153045654298	-980.666931152344	-190.2837982177735	60.4940872192383	-1027.79638671875	-226.9498138427735	48.17160415649415	-1074.952758789063	-273.6026000976563	780.370788574219	-675.9025268554689	-230.9515380859376	727.7652587890626	-671.7815551757814	-198.4052429199219	731.3602905273439	-676.7123413085939	-251.8444366455079	646.8694458007814	-684.5862426757814	-251.2065734863282	533.7253417968751	-687.8591918945314	-259.7215881347657	523.1400756835939	-811.0949707031252	-217.2279510498047	401.4954833984376	-711.3268432617189	-290.3018188476563	338.3717346191407	-658.7446899414064	-250.1131896972657	326.8999023437501	-677.7715454101564	-245.9099273681641	275.0071411132813	-702.3698120117189	-322.4206237792969	126.2942047119141	-678.6756591796876	-382.4352111816407	98.41304016113284	-723.3776855468751	-176.2972412109375	63.17570114135744	-755.1227416992189	-170.9716949462891	58.58335113525392	-719.7871093750001	-207.2357330322266	38.4250602722168	-665.9685058593751	-304.9524536132813	135.1649932861328	-761.8556518554689	nan	nan	nan	193.7205200195313	1602.724975585938	-965.5687255859377	nan	nan	nan	nan	nan	nan	nan	nan	nan	
1222	6.105	-243.5263214111329	1806.022705078125	-903.7144775390627	-375.9074096679688	1745.898315429688	-965.0750732421877	-398.3006591796876	1726.393310546875	-800.3254394531252	-402.613250732422	1555.942016601563	-884.5290527343752	-376.5383300781251	1253.071166992188	-866.2944335937502	-320.3978576660157	1582.214111328125	-1031.477416992188	-166.2280731201172	1578.907592773438	-1145.706176757813	-137.9706420898438	1596.116821289063	-1107.963134765625	-99.68046569824222	1585.604125976563	-1153.7939453125	-40.40402984619141	1594.624389648438	-1148.595458984375	-35.99730300903321	1518.367553710938	-1135.731079101563	205.6612243652344	1649.854614257813	-1016.358947753906	208.0801086425782	1673.206176757813	-913.947692871094	-311.1957702636719	1576.351196289063	-731.2557983398439	-164.5454406738282	1585.906494140625	-620.5607910156251	-134.91796875	1602.694946289063	-658.1363525390626	-96.81924438476565	1599.828735351563	-611.7163085937501	-36.30669784545899	1614.051635742188	-618.0552368164064	-21.97894668579102	1532.680297851563	-619.8051757812501	204.9073333740235	1661.736938476563	-759.8609619140626	201.755111694336	1637.23681640625	-873.2056274414065	-201.4302978515626	1067.102783203125	-976.2202148437502	-182.1392669677735	1051.209716796875	-760.6014404296876	-362.4968261718751	1111.52197265625	-849.426940917969	-369.0491943359376	1077.840576171875	-876.139099121094	-361.5501708984376	1080.728515625	-818.7802734375002	-292.2818908691407	830.4441528320315	-1053.8681640625	-255.3558654785157	754.6013793945314	-1058.754272460938	-207.2902984619141	759.0009155273439	-1055.123901367188	-278.7660522460938	699.9030151367189	-1048.418334960938	-255.127670288086	542.5199584960939	-1047.35595703125	-242.0249786376954	528.7183837890626	-926.0923461914065	-246.1177368164063	361.2656860351563	-984.795349121094	-276.6704711914063	320.9650573730469	-1058.216918945313	-246.3296203613282	315.3441772460938	-1022.212463378906	-269.8574218750001	237.8613586425782	-996.8613281250002	-332.3075256347657	130.0466766357422	-1050.08154296875	-313.7149658203126	132.2721405029297	-964.8551025390627	-398.238739013672	105.7535247802735	-1005.417419433594	-190.7098083496094	59.22867584228517	-980.5598754882815	-190.2924957275391	60.51588439941408	-1027.793090820313	-226.9686126708985	48.1970672607422	-1074.938720703125	-273.6322326660157	780.422790527344	-675.8641357421876	-230.9924926757813	727.7723388671876	-671.7360229492189	-198.5667114257813	731.2926635742189	-676.5762329101564	-252.1175384521485	647.1524658203126	-684.6576538085939	-251.2732696533204	533.7474975585939	-687.8150024414064	-259.8025207519532	523.1426391601564	-811.0736083984377	-217.3045349121094	401.3782348632814	-711.3261718750001	-290.3449401855469	338.3911132812501	-658.7592773437501	-250.1354675292969	326.9353027343751	-677.7351074218751	-245.9308013916016	275.0005187988282	-702.3200683593751	-322.4471130371094	126.2735214233399	-678.6535644531251	-382.4397277832032	98.41692352294925	-723.4356689453126	-176.2677154541016	63.16707992553712	-755.1925048828126	-172.1251373291016	57.86043167114259	-719.9893188476564	-207.2553710937501	38.3943214416504	-666.0153808593751	-304.8701477050782	135.0942840576172	-761.8495483398439	nan	nan	nan	193.5242767333985	1602.7314453125	-965.1119384765627	nan	nan	nan	nan	nan	nan	nan	nan	nan	
